# xmcd
#
# Track frame offsets:
#  150
#  12350
#  25262
#  38545
#  50417
#  63630
#  78895
#  93152
#  105847
#  123017
#  136755
#  148372
#  160265
#  173190
#  185467
#  197537
#  211800
#
# Disc length: 3018 seconds
#
# Revision: 0
# Processed by: cddbd v1.5.2PL0 Copyright (c) Steve Scherf et al.
# Submitted via: Collectorz.com_Music_Collector 6.11
#
DISCID=d50bc811
DTITLE=Lightnin' Hopkins - Sittin' In With Lightnin' Hopkins
DYEAR=1993
DGENRE=Blues
TTITLE0=R. Ellen - Contrary Mary
TTITLE1=R. Ellen - Why Did You Get Mad At Me?
TTITLE2=R. Ellen - Down To The River
TTITLE3=R. Ellen - I'm Beggin' You
TTITLE4=R. Ellen - Bald Headed Woman
TTITLE5=R. Ellen - What Kind Of Heart Have You (Talking-Lightnin' and Bobby Shad)
TTITLE6=R. Ellen - Back Home Boogie
TTITLE7=R. Ellen - New York Boogie
TTITLE8=R. Ellen - Broken Hearted Blues
TTITLE9=R. Ellen - Long Way From Texas
TTITLE10=R. Ellen - My Heart To Weep
TTITLE11=R. Ellen - Tap Dance Boogie
TTITLE12=R. Ellen - Home In The Woods
TTITLE13=R. Ellen - So Sorry
TTITLE14=R. Ellen - Fannie Mae
TTITLE15=R. Ellen - Cemetery Blues
TTITLE16=R. Ellen - Happy New Year
EXTD=
EXTT0=
EXTT1=
EXTT2=
EXTT3=
EXTT4=
EXTT5=
EXTT6=
EXTT7=
EXTT8=
EXTT9=
EXTT10=
EXTT11=
EXTT12=
EXTT13=
EXTT14=
EXTT15=
EXTT16=
PLAYORDER=
